<?xml version="1.0" encoding="UTF-8"?>
<svg version="1.1" xmlns="http://www.w3.org/2000/svg" width="150" height="150">
	<path d="M0 0 C49.5 0 99 0 150 0 C150 49.5 150 99 150 150 C100.5 150 51 150 0 150 C0 100.5 0 51 0 0 Z " fill="#f7f7f7" transform="translate(0,0)"/>
	<path d="M0 0 C2.15249974 0.01609619 4.30312287 0.00005721 6.45556641 -0.01904297 C18.87438629 -0.0388132 30.64288591 1.42670816 40.65478516 9.39111328 C51.73665621 20.68568819 52.83406988 32.61215306 52.84228516 47.70361328 C52.85453125 48.87601563 52.86677734 50.04841797 52.87939453 51.25634766 C52.90199769 64.75043614 50.92182578 75.47355891 41.55712891 85.57080078 C31.21761517 95.4644628 17.64723281 95.91168053 4.08276367 95.8371582 C1.72372319 95.82863654 -0.63289537 95.85753291 -2.99169922 95.88916016 C-15.26267974 95.9468772 -26.74610343 94.62674769 -36.41162109 86.30908203 C-46.64340413 76.15998007 -48.46033291 65.63488457 -48.53076172 51.66650391 C-48.53140625 50.4825 -48.53205078 49.29849609 -48.53271484 48.07861328 C-48.54496094 46.90621094 -48.55720703 45.73380859 -48.56982422 44.52587891 C-48.59145892 31.60996124 -46.44704719 22.82521185 -39.15771484 12.20361328 C-28.33932423 1.38522267 -14.61315887 -0.12967308 0 0 Z " fill="#a658ff" transform="translate(72.34521484375,27.60888671875)"/>
	<path d="M0 0 C16.5 0 33 0 50 0 C50 13.2 50 26.4 50 40 C33.5 40 17 40 0 40 C0 26.8 0 13.6 0 0 Z " fill="#F8FBFE" transform="translate(50,53)"/>
	<path d="M0 0 C4.62 0 9.24 0 14 0 C13.95117188 4.44335938 13.95117188 4.44335938 13.90234375 8.88671875 C13.99134575 11.72410262 14.35060162 14.2438919 15 17 C12.69 17.66 10.38 18.32 8 19 C7.67 21.31 7.34 23.62 7 26 C15.25 26 23.5 26 32 26 C31.34 23.69 30.68 21.38 30 19 C26.48599332 17.45913678 26.48599332 17.45913678 23 17 C23.4640625 15.8553125 23.4640625 15.8553125 23.9375 14.6875 C25.35118807 9.78117081 25.62741341 5.0920168 26 0 C29.96 0 33.92 0 38 0 C38 9.24 38 18.48 38 28 C25.46 28 12.92 28 0 28 C0 18.76 0 9.52 0 0 Z " fill="#a658ff" transform="translate(56,60)"/>
	<path d="M0 0 C12.87 0 25.74 0 39 0 C39 9.57 39 19.14 39 29 C38.67 29 38.34 29 38 29 C38 19.76 38 10.52 38 1 C34.04 1 30.08 1 26 1 C26.061875 2.69125 26.12375 4.3825 26.1875 6.125 C26.20577394 10.84576828 25.62362246 13.9552487 23 18 C24.11375 18.12375 25.2275 18.2475 26.375 18.375 C30 19 30 19 32 21 C32 22.98 32 24.96 32 27 C23.75 27 15.5 27 7 27 C7 24.69 7 22.38 7 20 C10.08809695 18.23537317 11.23312136 18 15 18 C14.67257813 17.29488281 14.34515625 16.58976562 14.0078125 15.86328125 C12.37844194 11.23410054 12.88240271 6.88028755 13 2 C8.71 1.67 4.42 1.34 0 1 C0 0.67 0 0.34 0 0 Z " fill="#E4F1FE" transform="translate(56,59)"/>
	<path d="M0 0 C18.48 0 36.96 0 56 0 C55 7 55 7 54 8 C52.37325222 8.09340434 50.74245949 8.11745171 49.11303711 8.11352539 C48.07203354 8.11344986 47.03102997 8.11337433 45.95848083 8.11329651 C44.8262056 8.10813522 43.69393036 8.10297394 42.52734375 8.09765625 C41.37456436 8.0962413 40.22178497 8.09482635 39.03407288 8.09336853 C35.33518936 8.08775005 31.63636536 8.07519442 27.9375 8.0625 C25.43684983 8.05748738 22.93619871 8.05292406 20.43554688 8.04882812 C14.29034412 8.03777462 8.14517631 8.02101852 2 8 C0.74335022 5.09399739 0 3.20395416 0 0 Z " fill="#F8FBFE" transform="translate(47,94)"/>
	<path d="M0 0 C1.65 0.33 3.3 0.66 5 1 C3.68 1.33 2.36 1.66 1 2 C1.33 2.66 1.66 3.32 2 4 C2.67546875 3.89300781 3.3509375 3.78601563 4.046875 3.67578125 C4.93890625 3.55589844 5.8309375 3.43601562 6.75 3.3125 C7.63171875 3.18488281 8.5134375 3.05726562 9.421875 2.92578125 C12 3 12 3 14.328125 4.10546875 C16 6 16 6 16 12 C7.75 12 -0.5 12 -9 12 C-9 9.69 -9 7.38 -9 5 C-5.86501708 3.14223235 -3.62528568 2.79859524 0 3 C0 2.01 0 1.02 0 0 Z " fill="#FBFDFE" transform="translate(72,74)"/>
	<path d="M0 0 C3.63 0 7.26 0 11 0 C11 0.99 11 1.98 11 3 C22.88 3.33 34.76 3.66 47 4 C47 4.33 47 4.66 47 5 C29.84 5 12.68 5 -5 5 C-5 4.67 -5 4.34 -5 4 C-3.35 3.67 -1.7 3.34 0 3 C0 2.01 0 1.02 0 0 Z " fill="#EDF6FE" transform="translate(54,97)"/>
	<path d="M0 0 C2.5625 0.1875 2.5625 0.1875 4.5625 2.1875 C4.8125 5.1875 4.8125 5.1875 4.5625 8.1875 C3.9025 8.8475 3.2425 9.5075 2.5625 10.1875 C-0.37203261 9.82068342 -1.30187246 9.32312754 -3.4375 7.1875 C-3.625 4.125 -3.625 4.125 -3.4375 1.1875 C-2.4375 0.1875 -2.4375 0.1875 0 0 Z " fill="#a652ff" transform="translate(74.4375,64.8125)"/>
	<path d="M0 0 C0.33 0 0.66 0 1 0 C1.90282145 3.52921112 2.25033181 5.40710887 0.8125 8.8125 C-1.13881649 11.16753715 -2.01377363 11.69108003 -5 12 C-5.33 11.01 -5.66 10.02 -6 9 C-4.68 9 -3.36 9 -2 9 C-1.34 6.03 -0.68 3.06 0 0 Z " fill="#DDEDFD" transform="translate(79,67)"/>
	<path d="M0 0 C2.31 0 4.62 0 7 0 C6.67 0.99 6.34 1.98 6 3 C4.35 3.33 2.7 3.66 1 4 C0.67 2.68 0.34 1.36 0 0 Z " fill="#DBEDFD" transform="translate(54,97)"/>
</svg>
